<?xml version="1.0" standalone="no"?>
<!DOCTYPE svg PUBLIC "-//W3C//DTD SVG 20010904//EN"
 "http://www.w3.org/TR/2001/REC-SVG-20010904/DTD/svg10.dtd">
<svg version="1.0" xmlns="http://www.w3.org/2000/svg"
 width="60.000000pt" height="48.000000pt" viewBox="0 0 60.000000 48.000000"
 preserveAspectRatio="xMidYMid meet">
<metadata>
Created by potrace 1.10, written by Peter Selinger 2001-2011
</metadata>
<g transform="translate(0.000000,48.000000) scale(0.100000,-0.100000)"
fill="#00ff62" stroke="none">
<path d="M140 290 c0 -5 5 -10 10 -10 14 0 12 -104 -2 -118 -9 -9 -4 -12 25
-12 20 0 37 5 37 10 0 6 -4 10 -10 10 -5 0 -10 25 -10 55 0 30 5 55 10 55 6 0
10 5 10 10 0 6 -16 10 -35 10 -19 0 -35 -4 -35 -10z"/>
<path d="M242 288 c-20 -20 -14 -42 23 -73 27 -23 33 -33 25 -45 -9 -13 -13
-12 -29 8 -24 28 -33 28 -29 0 5 -39 81 -36 91 4 5 16 -3 29 -30 54 -19 18
-32 37 -29 43 9 14 36 2 36 -15 0 -8 5 -14 10 -14 6 0 10 11 10 25 0 22 -4 25
-33 25 -18 0 -38 -5 -45 -12z"/>
<path d="M366 235 c-10 -36 -22 -65 -27 -65 -5 0 -9 -4 -9 -10 0 -5 11 -10 25
-10 20 0 24 5 22 22 -1 17 4 24 22 26 21 3 23 1 17 -22 -6 -24 -4 -26 30 -26
35 0 36 1 22 18 -9 9 -23 43 -32 75 -23 80 -45 78 -70 -8z m43 -12 c1 -7 -6
-13 -14 -13 -17 0 -18 4 -8 39 6 23 7 23 14 5 4 -10 8 -25 8 -31z"/>
</g>
</svg>
